<svg width="40" height="40" viewBox="0 0 40 40" fill="none" xmlns="http://www.w3.org/2000/svg">
<g clip-path="url(#clip0_49_2295)">
<g clip-path="url(#clip1_49_2295)">
<path d="M20 40C31.0457 40 40 31.0457 40 20C40 8.9543 31.0457 0 20 0C8.9543 0 0 8.9543 0 20C0 31.0457 8.9543 40 20 40Z" fill="url(#paint0_linear_49_2295)"/>
<path fill-rule="evenodd" clip-rule="evenodd" d="M9.05309 19.7889C14.8835 17.2487 18.7714 15.574 20.7166 14.7649C26.2708 12.4548 27.425 12.0534 28.1772 12.0401C28.3426 12.0373 28.7125 12.0783 28.9522 12.2727C29.3076 12.5612 29.3097 13.1873 29.2702 13.6016C28.9692 16.7641 27.6668 24.4386 27.0043 27.9806C26.7239 29.4794 26.1718 29.9819 25.6375 30.0311C24.4761 30.138 23.5941 29.2635 22.4692 28.5262C20.709 27.3723 19.7145 26.654 18.0058 25.528C16.0312 24.2268 17.3113 23.5116 18.4366 22.3428C18.7311 22.0369 23.8484 17.3823 23.9475 16.9601C23.9599 16.9073 23.9714 16.7104 23.8544 16.6065C23.7375 16.5026 23.5649 16.538 23.4404 16.5663C23.2638 16.6064 20.4518 18.4651 15.0043 22.1423C14.2061 22.6904 13.4831 22.9574 12.8354 22.9434C12.1212 22.928 10.7476 22.5397 9.72645 22.2077C8.47395 21.8006 7.47848 21.5853 7.5652 20.8939C7.61036 20.5337 8.1063 20.1654 9.05309 19.7889Z" fill="white"/>
</g>
</g>
<defs>
<linearGradient id="paint0_linear_49_2295" x1="20" y1="0" x2="20" y2="39.6875" gradientUnits="userSpaceOnUse">
<stop stop-color="#2AABEE"/>
<stop offset="1" stop-color="#229ED9"/>
</linearGradient>
<clipPath id="clip0_49_2295">
<rect width="40" height="40" fill="white"/>
</clipPath>
<clipPath id="clip1_49_2295">
<rect width="40" height="40" fill="white"/>
</clipPath>
</defs>
</svg>
