<svg width="40" height="40" viewBox="0 0 40 40" fill="none" xmlns="http://www.w3.org/2000/svg">
<g clip-path="url(#clip0_49_2292)">
<g clip-path="url(#clip1_49_2292)">
<path fill-rule="evenodd" clip-rule="evenodd" d="M24.8911 23.4513C24.6849 24.03 23.6949 24.5575 23.2186 24.6288C22.7924 24.6925 22.2524 24.7188 21.6586 24.5313C21.2986 24.4163 20.8374 24.2638 20.2474 24.0088C17.7624 22.9363 16.1386 20.435 16.0149 20.27C15.8911 20.105 15.0036 18.9275 15.0036 17.7088C15.0036 16.49 15.6436 15.89 15.8711 15.6425C16.0974 15.395 16.3661 15.3325 16.5311 15.3325C16.6961 15.3325 16.8611 15.3338 17.0061 15.3413C17.1586 15.3488 17.3624 15.2838 17.5636 15.7663C17.7699 16.2625 18.2649 17.4813 18.3274 17.605C18.3886 17.7288 18.4299 17.8738 18.3474 18.0388C18.2649 18.2038 18.2236 18.3075 18.0999 18.4525C17.9761 18.5963 17.8399 18.775 17.7286 18.8863C17.6049 19.0088 17.4749 19.1438 17.6199 19.3913C17.7649 19.6388 18.2611 20.45 18.9974 21.1063C19.9436 21.95 20.7424 22.2113 20.9899 22.3363C21.2374 22.46 21.3824 22.4388 21.5261 22.2738C21.6711 22.1088 22.1461 21.5513 22.3111 21.3025C22.4761 21.055 22.6411 21.0963 22.8686 21.1788C23.0949 21.2613 24.3136 21.86 24.5611 21.985C24.8086 22.1088 24.9736 22.17 25.0361 22.2738C25.0974 22.3775 25.0974 22.8725 24.8911 23.4513ZM20.0449 11.6738C15.4999 11.6738 11.8024 15.3688 11.8011 19.91C11.8011 21.4663 12.2361 22.9825 13.0611 24.2938L13.2574 24.605L12.4249 27.645L15.5436 26.8275L15.8436 27.005C17.1086 27.7563 18.5586 28.1538 20.0374 28.1538H20.0411C24.5824 28.1538 28.2786 24.4588 28.2811 19.9163C28.2811 17.715 27.4261 15.6463 25.8699 14.0888C24.3136 12.5325 22.2449 11.6738 20.0449 11.6738Z" fill="#67D449"/>
<path fill-rule="evenodd" clip-rule="evenodd" d="M20.0413 29.8275H20.0375C18.3775 29.8275 16.7475 29.4112 15.3 28.6212L10.0437 30L11.4513 24.8638C10.5838 23.3613 10.1263 21.6563 10.1275 19.9088C10.13 14.445 14.5763 10 20.0413 10C22.6925 10 25.1825 11.0325 27.0537 12.9062C28.925 14.7787 29.9563 17.2688 29.955 19.9175C29.9525 25.3812 25.505 29.8275 20.0413 29.8275ZM20 0C8.95375 0 0 8.95375 0 20C0 31.045 8.95375 40 20 40C31.045 40 40 31.045 40 20C40 8.95375 31.045 0 20 0Z" fill="#67D449"/>
</g>
</g>
<defs>
<clipPath id="clip0_49_2292">
<rect width="40" height="40" fill="white"/>
</clipPath>
<clipPath id="clip1_49_2292">
<rect width="40" height="40" fill="white"/>
</clipPath>
</defs>
</svg>
